<svg id="Group" xmlns="http://www.w3.org/2000/svg" width="23" height="22.001" viewBox="0 0 23 22.001">
  <g id="Group-2" data-name="Group">
    <path id="Vector" d="M22.77,6.649a2.709,2.709,0,0,0-1.861-.6H16.576l3.162-4.574A.7.7,0,0,0,19.486.469,2.965,2.965,0,0,0,17.773,0H6.273A2.281,2.281,0,0,0,4.245.833L.063,9.633c-.156.329-.016.677.381.944A3.055,3.055,0,0,0,2.091,11H6.462L.118,20.538c-.344.516.086,1.086,1.007,1.339A3.692,3.692,0,0,0,2.09,22a2.992,2.992,0,0,0,1.7-.457L22.605,7.793A.7.7,0,0,0,22.77,6.649ZM2.091,20.9l7.318-11H2.091L6.273,1.1h11.5L13.591,7.15h7.318Z" fill="#fff"/>
  </g>
</svg>
