<svg id="icon_following" data-name="icon/following" xmlns="http://www.w3.org/2000/svg" width="26" height="22" viewBox="0 0 26 22">
  <g id="icon_following-2" data-name="icon/following">
    <path id="Vector_353" data-name="Vector 353" d="M0,0C4.529,0,3.294,7.083,2.471,9.444,2.471,9.444,7,12.278,7,17" transform="translate(18 3)" fill="none" stroke="#fff" stroke-width="2"/>
    <path id="Union" d="M0,22a10.93,10.93,0,0,1,3.523-7.621A17.522,17.522,0,0,1,5.869,12.42c.128-.089.247-.17.357-.242A25.384,25.384,0,0,1,5.5,5.8,7.02,7.02,0,0,1,6.776,1.848,5.069,5.069,0,0,1,11,0a5.3,5.3,0,0,1,4.283,1.82,7.044,7.044,0,0,1,1.43,3.943,17.851,17.851,0,0,1-.837,6.483q.121.081.255.175a17.522,17.522,0,0,1,2.346,1.958A10.93,10.93,0,0,1,22,22Zm8.662-9.49c-.044-.218-.095-.46-.15-.721a23.443,23.443,0,0,1-.7-5.861A4.772,4.772,0,0,1,8.6,3.272,2.779,2.779,0,0,1,11,2.316a3.009,3.009,0,0,1,2.5.985,4.778,4.778,0,0,1,.9,2.66A15.767,15.767,0,0,1,13.4,12.307a1.158,1.158,0,0,0,.52,1.446l.008,0,.041.024c.039.022.1.057.177.105.157.1.385.241.663.434a15.207,15.207,0,0,1,2.032,1.7,10.1,10.1,0,0,1,2.437,3.668H2.724a10.1,10.1,0,0,1,2.437-3.668,15.207,15.207,0,0,1,2.032-1.7c.277-.193.506-.339.663-.434.078-.048.138-.083.177-.105l.041-.024.007,0h0A1.158,1.158,0,0,0,8.662,12.51Z" fill="#fff"/>
  </g>
</svg>
