<svg xmlns="http://www.w3.org/2000/svg" xmlns:xlink="http://www.w3.org/1999/xlink" width="24" height="24" viewBox="0 0 24 24">
  <defs>
    <clipPath id="clip-path">
      <rect id="Rectangle_3392" data-name="Rectangle 3392" width="24" height="24" fill="#2dceef"/>
    </clipPath>
  </defs>
  <g id="Radio" transform="translate(246 591)">
    <g id="Radio-2" data-name="Radio" transform="translate(-246 -591)" clip-path="url(#clip-path)">
      <g id="Group_1089" transform="translate(-2.425 -2.425)">
        <path id="Path_527" d="M14.5,2.5A11.95,11.95,0,0,1,26.4,14.4" fill="none"/>
        <path id="Path_528" d="M14.3,26.4A11.865,11.865,0,0,1,2.4,14.5h0" fill="none"/>
        <path id="Path_806" data-name="Path 806" d="M24.8,14.4A10.6,10.6,0,0,0,14.5,4.1V2.6A11.959,11.959,0,0,1,26.2,14.3Z" fill="#2dceef"/>
        <path id="Path_807" data-name="Path 807" d="M14.3,26.3a12.026,12.026,0,0,1-8.2-3.5,11.594,11.594,0,0,1-3.5-8.2H4.1a10.323,10.323,0,0,0,3.1,7.2,10.769,10.769,0,0,0,7.2,3.1Z" fill="#2dceef"/>
        <path id="Path_531" d="M14.5,7.2a7.171,7.171,0,0,1,7.1,7.1" fill="none"/>
        <path id="Path_532" d="M14.3,21.6a7.171,7.171,0,0,1-7.1-7.1" fill="none"/>
        <path id="Path_808" data-name="Path 808" d="M20,14.3a5.464,5.464,0,0,0-5.4-5.4V7.4a6.966,6.966,0,0,1,4.9,2,6.8,6.8,0,0,1,2,4.9Z" fill="#2dceef"/>
        <path id="Path_809" data-name="Path 809" d="M14.3,21.5a6.966,6.966,0,0,1-4.9-2,6.8,6.8,0,0,1-2-4.9H8.9A5.464,5.464,0,0,0,14.3,20Z" fill="#2dceef"/>
        <path id="Rectangle_2968" d="M12.7,12.7h0a2.478,2.478,0,0,1,3.4,0h0a2.478,2.478,0,0,1,0,3.4h0a2.478,2.478,0,0,1-3.4,0h0A2.477,2.477,0,0,1,12.7,12.7Z" fill="#2dceef"/>
      </g>
    </g>
  </g>
</svg>
