<svg xmlns="http://www.w3.org/2000/svg" width="28" height="24" viewBox="0 0 28 24">
  <path id="Vector" d="M27.172,10.8a2.1,2.1,0,0,0-1.327-.479,2.072,2.072,0,0,0-.52.067l-.257.067.251-1.776a1.767,1.767,0,0,0-.379-1.369,1.609,1.609,0,0,0-1.148-.591V3.153A3.088,3.088,0,0,0,20.779,0H15.889a4.447,4.447,0,0,0-3.122,1.245,2.04,2.04,0,0,1-1.47.677H4.229A2.714,2.714,0,0,0,1.545,4.66V6.721A1.609,1.609,0,0,0,.4,7.312,1.767,1.767,0,0,0,.018,8.68L1.979,22.54A1.66,1.66,0,0,0,3.6,24H21.74a1.643,1.643,0,0,0,1.553-1.179,3.508,3.508,0,0,0,1.23.222A3.453,3.453,0,0,0,28,19.623V12.579A2.282,2.282,0,0,0,27.172,10.8ZM3.513,6.718V4.66a.692.692,0,0,1,.716-.678H11.3a3.883,3.883,0,0,0,2.7-1.125,2.552,2.552,0,0,1,1.9-.8h4.891a1.07,1.07,0,0,1,1.044,1.092V6.718Zm22.927,12.9a1.858,1.858,0,1,1-1.853-1.72,2.027,2.027,0,0,1,.275.019l.114.016v-4l-4.492,1.2V20.6a1.858,1.858,0,1,1-1.853-1.72,2.027,2.027,0,0,1,.275.019l.114.016V14.233a.552.552,0,0,1,.4-.539l6.355-1.655a.513.513,0,0,1,.455.1.566.566,0,0,1,.2.438v7.044Z" fill="#fff"/>
</svg>
